<?xml version="1.0" encoding="UTF-8"?>
<!DOCTYPE svg PUBLIC "-//W3C//DTD SVG 1.1//EN" "http://www.w3.org/Graphics/SVG/1.1/DTD/svg11.dtd">
<!-- Creator: CorelDRAW X8 -->
<svg xmlns="http://www.w3.org/2000/svg" xml:space="preserve" width="59.3572mm" height="40.0971mm" version="1.1" style="shape-rendering:geometricPrecision; text-rendering:geometricPrecision; image-rendering:optimizeQuality; fill-rule:evenodd; clip-rule:evenodd"
viewBox="0 0 2469 1668"
 xmlns:xlink="http://www.w3.org/1999/xlink">
 <defs>
  <style type="text/css">
   <![CDATA[
    .fil0 {fill:#FEFEFE}
   ]]>
  </style>
 </defs>
 <g id="Слой_x0020_1">
  <metadata id="CorelCorpID_0Corel-Layer"/>
  <g id="_2513235647632">
   <path class="fil0" d="M555 1538l53 3c-5,34 -19,46 -42,62l-11 -65zm1661 -245c-52,43 -553,20 -612,18l-39 -111 600 16c15,43 25,51 51,77zm-1271 82c28,25 15,-2 13,42 183,5 1067,-41 1157,2l-344 2 29 41c-178,8 -370,-4 -551,-3 -168,1 -369,17 -524,-14 -16,-45 -18,-93 -32,-133 -14,-36 -41,-74 -41,-109 56,-4 221,-31 263,-3 72,49 -84,36 205,49 -2,2 -6,4 -7,5 -2,2 -5,4 -7,5l-43 25c47,23 45,32 101,40 -44,32 -156,26 -219,51zm-452 -523c44,-19 86,-33 131,-50l69 -20c43,-12 29,-19 67,-4 -31,23 -28,16 -67,27 -26,7 -45,14 -69,19 -43,11 -87,25 -131,28zm-493 -189c45,-4 57,-37 79,-65 108,-138 268,-248 410,-349 60,-43 115,-72 186,-111 198,-112 272,-92 520,-81 186,8 216,25 373,72 21,6 42,8 59,17 34,19 21,9 26,34 -123,-30 -194,-49 -324,-66 -84,-10 -290,-15 -339,15l104 46c8,5 21,11 27,15 8,67 -23,-3 -4,35 20,42 241,91 286,122 -37,3 -61,-2 -89,12 -25,13 -39,34 -32,48 18,38 72,27 121,28 172,5 466,35 600,128 56,39 109,77 157,126 -145,-15 -309,-45 -461,-64 -306,-38 -663,-41 -953,56 -93,32 -327,116 -374,154 42,30 52,-4 100,-13 -62,57 -228,107 -307,138 -23,8 -50,15 -49,37l4 15c-19,13 -20,11 -43,23l-42 31c111,-22 208,-70 316,-97 104,-26 207,-57 313,-84 58,-15 108,-39 158,1 127,100 334,113 496,102 -27,-14 -83,-15 -154,-24 -117,-16 -343,-41 -271,-211 104,-18 244,-3 341,29 114,38 120,122 200,173 -54,-185 -190,-175 -244,-236 98,0 204,-1 301,2 69,2 213,33 263,24 43,-8 67,-41 117,-7 54,37 5,32 101,45 73,10 178,13 246,39 -20,56 -150,178 -8,201 -45,-96 90,-225 147,-175 31,40 33,156 33,214 -76,12 -154,-3 -228,-8 -75,-4 -145,3 -219,3 -155,0 -308,3 -463,3 -80,0 -162,-1 -242,-1 -63,1 -136,17 -209,23 -105,10 -311,31 -402,56 58,0 98,-8 136,17 -72,31 -257,-7 -235,124 29,-37 16,-29 50,-56 47,44 51,187 47,263l-80 4c-17,-25 -10,-28 -22,-50 -28,37 -17,38 -9,90 -50,-9 -113,8 -195,2 -7,-51 4,-81 -36,-96 -73,-28 -20,19 -87,9 -25,-46 -37,-106 -55,-165 -38,-126 -186,-82 -116,60 32,-12 17,-23 36,-60 64,62 41,199 36,273 -2,-3 -4,-6 -6,-8l-23 -38c-15,-19 -4,-13 -29,-21 -43,55 44,144 88,153 16,3 116,3 132,0 51,-9 49,-27 60,-75 56,-13 143,-28 200,-12 13,34 7,15 10,42 4,32 -5,10 4,28 8,18 42,29 58,32 305,49 126,-49 328,-53l638 -23c84,-4 581,36 627,-9 39,-38 37,-109 18,-164 103,0 203,11 235,-78 25,-70 44,-172 21,-250 -14,-49 -38,-24 -47,-112 -5,-54 -7,-76 -21,-129 -50,-183 -372,-279 -473,-429 -81,-120 -182,-190 -244,-283 -22,-33 12,-9 -33,-35 -91,-51 -393,-82 -516,-87 -334,-14 -432,51 -674,230 -176,130 -325,240 -450,431z"/>
   <path class="fil0" d="M1380 789c35,102 118,209 221,219 334,31 477,96 547,-163 -287,-74 -217,24 -283,53 -96,43 -111,-69 -150,-92 -36,-22 -263,-37 -321,-22l-14 5z"/>
   <path class="fil0" d="M1774 855c25,49 64,46 105,11 -16,-35 -12,-17 -43,-42 -70,15 -52,18 -62,31z"/>
   <path class="fil0" d="M1758 824c31,-3 41,-12 61,-25l-3 -65c-30,5 -54,-1 -58,90z"/>
   <path class="fil0" d="M1844 804c21,16 20,21 49,23 13,-60 -6,-74 -53,-88l4 65z"/>
   <path class="fil0" d="M645 591c15,14 -15,15 65,14 102,0 62,-2 76,-14 -31,-17 -106,-17 -141,0z"/>
   <path class="fil0" d="M635 633c32,23 104,2 144,0 -10,-20 8,-28 -63,-17 -43,6 -52,-1 -81,17z"/>
   <path class="fil0" d="M336 855c0,0 -13,20 25,0 -15,-11 -10,-11 -25,0z"/>
  </g>
 </g>
</svg>
